# MagicaVoxel @ Ephtracy

# group
o 

# material
mtllib Missile.mtl
usemtl palette

# normals
vn -1 0 0
vn 1 0 0
vn 0 0 1
vn 0 0 -1
vn 0 -1 0
vn 0 1 0

# texcoords
vt 0.841797 0.5
vt 0.955078 0.5
vt 0.990234 0.5

# verts
v -0.3 0.4 0.1
v -0.3 0.4 0
v -0.3 0.5 0.1
v -0.3 0.5 0
v -0.2 0.5 0.4
v -0.2 0.5 0.3
v -0.2 0.5 0.1
v -0.2 0.5 0
v -0.2 0.5 -0.3
v -0.2 0.6 0.4
v -0.2 0.6 0.3
v -0.2 0.6 -0.3
v -0.1 0.4 0.4
v -0.1 0.4 0.3
v -0.1 0.4 -0.3
v -0.1 0.5 0.4
v -0.1 0.5 0.3
v -0.1 0.5 -0.3
v -0.1 0.6 0.4
v -0.1 0.6 0.3
v -0.1 0.6 -0.3
v -0.1 0.7 0.4
v -0.1 0.7 0.3
v -0.1 0.7 -0.3
v 0.2 0.4 0.1
v 0.2 0.4 0
v 0.2 0.5 0.1
v 0.2 0.5 0
v -0.2 0.4 0.1
v -0.2 0.4 0
v -0.2 0.5 0.1
v -0.2 0.5 0
v 0.1 0.4 0.4
v 0.1 0.4 0.3
v 0.1 0.4 -0.3
v 0.1 0.5 0.4
v 0.1 0.5 0.3
v 0.1 0.5 -0.3
v 0.1 0.6 0.4
v 0.1 0.6 0.3
v 0.1 0.6 -0.3
v 0.1 0.7 0.4
v 0.1 0.7 0.3
v 0.1 0.7 -0.3
v 0.2 0.5 0.4
v 0.2 0.5 0.3
v 0.2 0.5 0.1
v 0.2 0.5 0
v 0.2 0.5 -0.3
v 0.2 0.6 0.4
v 0.2 0.6 0.3
v 0.2 0.6 -0.3
v 0.3 0.4 0.1
v 0.3 0.4 0
v 0.3 0.5 0.1
v 0.3 0.5 0
v -0.2 0.5 0.4
v -0.2 0.6 0.4
v -0.1 0.4 0.4
v -0.1 0.5 0.4
v -0.1 0.6 0.4
v -0.1 0.7 0.4
v 0.1 0.4 0.4
v 0.1 0.5 0.4
v 0.1 0.6 0.4
v 0.1 0.7 0.4
v 0.2 0.5 0.4
v 0.2 0.6 0.4
v -0.3 0.4 0.1
v -0.3 0.5 0.1
v -0.2 0.4 0.1
v -0.2 0.5 0.1
v 0.2 0.4 0.1
v 0.2 0.5 0.1
v 0.3 0.4 0.1
v 0.3 0.5 0.1
v -0.3 0.4 0
v -0.3 0.5 0
v -0.2 0.4 0
v -0.2 0.5 0
v 0.2 0.4 0
v 0.2 0.5 0
v 0.3 0.4 0
v 0.3 0.5 0
v -0.2 0.5 -0.3
v -0.2 0.6 -0.3
v -0.1 0.4 -0.3
v -0.1 0.5 -0.3
v -0.1 0.6 -0.3
v -0.1 0.7 -0.3
v 0.1 0.4 -0.3
v 0.1 0.5 -0.3
v 0.1 0.6 -0.3
v 0.1 0.7 -0.3
v 0.2 0.5 -0.3
v 0.2 0.6 -0.3
v -0.1 0.4 0.4
v 0.1 0.4 0.4
v -0.1 0.4 0.3
v 0.1 0.4 0.3
v -0.3 0.4 0.1
v -0.2 0.4 0.1
v 0.2 0.4 0.1
v 0.3 0.4 0.1
v -0.3 0.4 0
v -0.2 0.4 0
v 0.2 0.4 0
v 0.3 0.4 0
v -0.1 0.4 -0.3
v 0.1 0.4 -0.3
v -0.2 0.5 0.4
v -0.1 0.5 0.4
v 0.1 0.5 0.4
v 0.2 0.5 0.4
v -0.2 0.5 0.3
v -0.1 0.5 0.3
v 0.1 0.5 0.3
v 0.2 0.5 0.3
v -0.2 0.5 0.1
v 0.2 0.5 0.1
v -0.2 0.5 0
v 0.2 0.5 0
v -0.2 0.5 -0.3
v -0.1 0.5 -0.3
v 0.1 0.5 -0.3
v 0.2 0.5 -0.3
v -0.3 0.5 0.1
v -0.2 0.5 0.1
v 0.2 0.5 0.1
v 0.3 0.5 0.1
v -0.3 0.5 0
v -0.2 0.5 0
v 0.2 0.5 0
v 0.3 0.5 0
v -0.2 0.6 0.4
v -0.1 0.6 0.4
v 0.1 0.6 0.4
v 0.2 0.6 0.4
v -0.2 0.6 0.3
v -0.1 0.6 0.3
v 0.1 0.6 0.3
v 0.2 0.6 0.3
v -0.2 0.6 -0.3
v -0.1 0.6 -0.3
v 0.1 0.6 -0.3
v 0.2 0.6 -0.3
v -0.1 0.7 0.4
v 0.1 0.7 0.4
v -0.1 0.7 0.3
v 0.1 0.7 0.3
v -0.1 0.7 -0.3
v 0.1 0.7 -0.3

# faces
f 3/2/1 2/2/1 1/2/1
f 4/2/1 2/2/1 3/2/1
f 10/1/1 6/1/1 5/1/1
f 11/3/1 9/3/1 8/3/1
f 11/1/1 6/1/1 10/1/1
f 11/3/1 7/3/1 6/3/1
f 11/3/1 8/3/1 7/3/1
f 12/3/1 9/3/1 11/3/1
f 16/1/1 14/1/1 13/1/1
f 17/3/1 15/3/1 14/3/1
f 17/1/1 14/1/1 16/1/1
f 18/3/1 15/3/1 17/3/1
f 22/1/1 20/1/1 19/1/1
f 23/3/1 21/3/1 20/3/1
f 23/1/1 20/1/1 22/1/1
f 24/3/1 21/3/1 23/3/1
f 27/2/1 26/2/1 25/2/1
f 28/2/1 26/2/1 27/2/1
f 29/2/2 30/2/2 31/2/2
f 31/2/2 30/2/2 32/2/2
f 33/1/2 34/1/2 36/1/2
f 34/3/2 35/3/2 37/3/2
f 36/1/2 34/1/2 37/1/2
f 37/3/2 35/3/2 38/3/2
f 39/1/2 40/1/2 42/1/2
f 40/3/2 41/3/2 43/3/2
f 42/1/2 40/1/2 43/1/2
f 43/3/2 41/3/2 44/3/2
f 45/1/2 46/1/2 50/1/2
f 48/3/2 49/3/2 51/3/2
f 50/1/2 46/1/2 51/1/2
f 46/3/2 47/3/2 51/3/2
f 47/3/2 48/3/2 51/3/2
f 51/3/2 49/3/2 52/3/2
f 53/2/2 54/2/2 55/2/2
f 55/2/2 54/2/2 56/2/2
f 60/1/3 58/1/3 57/1/3
f 61/1/3 58/1/3 60/1/3
f 63/1/3 60/1/3 59/1/3
f 63/1/3 62/1/3 61/1/3
f 63/1/3 61/1/3 60/1/3
f 64/1/3 62/1/3 63/1/3
f 65/1/3 62/1/3 64/1/3
f 66/1/3 62/1/3 65/1/3
f 67/1/3 65/1/3 64/1/3
f 68/1/3 65/1/3 67/1/3
f 71/2/3 70/2/3 69/2/3
f 72/2/3 70/2/3 71/2/3
f 75/2/3 74/2/3 73/2/3
f 76/2/3 74/2/3 75/2/3
f 77/2/4 78/2/4 79/2/4
f 79/2/4 78/2/4 80/2/4
f 81/2/4 82/2/4 83/2/4
f 83/2/4 82/2/4 84/2/4
f 85/3/4 86/3/4 88/3/4
f 88/3/4 86/3/4 89/3/4
f 87/3/4 88/3/4 91/3/4
f 89/3/4 90/3/4 91/3/4
f 88/3/4 89/3/4 91/3/4
f 91/3/4 90/3/4 92/3/4
f 92/3/4 90/3/4 93/3/4
f 93/3/4 90/3/4 94/3/4
f 92/3/4 93/3/4 95/3/4
f 95/3/4 93/3/4 96/3/4
f 99/1/5 98/1/5 97/1/5
f 100/1/5 98/1/5 99/1/5
f 105/2/5 102/2/5 101/2/5
f 106/2/5 102/2/5 105/2/5
f 107/2/5 104/2/5 103/2/5
f 108/2/5 104/2/5 107/2/5
f 109/3/5 100/3/5 99/3/5
f 110/3/5 100/3/5 109/3/5
f 115/1/5 112/1/5 111/1/5
f 116/1/5 112/1/5 115/1/5
f 117/1/5 114/1/5 113/1/5
f 118/1/5 114/1/5 117/1/5
f 119/3/5 116/3/5 115/3/5
f 120/3/5 118/3/5 117/3/5
f 121/3/5 116/3/5 119/3/5
f 122/3/5 120/3/5 117/3/5
f 123/3/5 116/3/5 121/3/5
f 124/3/5 116/3/5 123/3/5
f 125/3/5 122/3/5 117/3/5
f 126/3/5 122/3/5 125/3/5
f 127/2/6 128/2/6 131/2/6
f 131/2/6 128/2/6 132/2/6
f 129/2/6 130/2/6 133/2/6
f 133/2/6 130/2/6 134/2/6
f 135/1/6 136/1/6 139/1/6
f 139/1/6 136/1/6 140/1/6
f 137/1/6 138/1/6 141/1/6
f 141/1/6 138/1/6 142/1/6
f 139/3/6 140/3/6 143/3/6
f 143/3/6 140/3/6 144/3/6
f 141/3/6 142/3/6 145/3/6
f 145/3/6 142/3/6 146/3/6
f 147/1/6 148/1/6 149/1/6
f 149/1/6 148/1/6 150/1/6
f 149/3/6 150/3/6 151/3/6
f 151/3/6 150/3/6 152/3/6
